<?xml version="1.0" encoding="UTF-8"?><svg id="Capa_1" xmlns="http://www.w3.org/2000/svg" viewBox="0 0 318.32 320.64"><defs><style>.cls-1,.cls-2{stroke:#fff;}.cls-1,.cls-2,.cls-3,.cls-4{stroke-miterlimit:10;}.cls-1,.cls-2,.cls-4{stroke-width:15px;}.cls-1,.cls-4{fill:none;}.cls-2{fill:#fff;}.cls-3{fill:#ffed00;stroke-width:3px;}.cls-3,.cls-4{stroke:#ffed00;}</style></defs><path class="cls-3" d="M142.81,102.84c-.5,8.75-1,18.5-1,33.25v70.25c0,27.75-5.5,44.75-17.25,55.25-11.75,11-28.75,14.5-44,14.5s-30.5-3.5-40.25-10l1.15-16.72c8,5,24.85,9.47,39.85,9.47,22.5,0,39-11.75,39-42.25v-13.5h-.5c-6.75,11.25-19.75,20.25-38.5,20.25-30,0-51.5-25.5-51.5-59,0-41,26.75-64.25,54.5-64.25,21,0,32.5,11,37.75,21h.5l1-18.25h19.25Zm-22.75,47.75c0-3.75-.25-7-1.25-10-4-12.75-14.75-23.25-30.75-23.25-21,0-36,17.75-36,45.75,0,23.75,12,43.5,35.75,43.5,13.5,0,25.75-8.5,30.5-22.5,1.25-3.75,1.75-8,1.75-11.75v-21.75Z"/><path class="cls-3" d="M175.81,142.34c0-15.5-.5-28-1-39.5h19.75l1,20.75h.5c9-14.75,23.25-23.5,43-23.5,29.25,0,51.25,24.75,51.25,61.5,0,43.5-26.5,65-55,65-16,0-30-7-37.25-19h-.5v65.75h-21.75V142.34Zm21.75,32.25c0,3.25,.5,6.25,1,9,4,15.25,17.25,25.75,33,25.75,23.25,0,36.75-19,36.75-46.75,0-24.25-12.75-45-36-45-15,0-29,10.75-33.25,27.25-.75,2.75-1.5,6-1.5,9v20.75Z"/><ellipse class="cls-4" cx="159.16" cy="162.84" rx="151.66" ry="150.3"/><rect class="cls-2" x="7.5" y="160.52" width="303.32" height="6.04"/><polygon class="cls-4" points="144.49 38.65 157.39 48.09 172.63 38.65 165.6 53.75 158.56 68.85 151.53 53.75 144.49 38.65"/><polygon class="cls-1" points="246.83 29.57 252.28 44.06 269.65 46.03 255.94 53.02 242.23 60 244.53 44.78 246.83 29.57"/><polygon class="cls-1" points="46.84 51.87 62.65 49.51 66.84 32.07 72.46 47.75 78.09 63.43 62.47 57.65 46.84 51.87"/></svg>